<?xml version="1.0" encoding="UTF-8" standalone="no"?><!-- Generator: Gravit.io --><svg xmlns="http://www.w3.org/2000/svg" xmlns:xlink="http://www.w3.org/1999/xlink" style="isolation:isolate" viewBox="514 343 512.083 320.028" width="512.083pt" height="320.028pt"><defs><clipPath id="_clipPath_4fQk3r4Fswc5hsK7BFNvpDQcLcoRfSuW"><rect x="514" y="343" width="512.083" height="320.028"/></clipPath></defs><g clip-path="url(#_clipPath_4fQk3r4Fswc5hsK7BFNvpDQcLcoRfSuW)"><g><path d=" M 930.084 428.36 L 930.084 428.36 C 900.624 357.67 819.436 324.246 748.745 353.706 C 700.41 373.849 667.545 419.502 663.779 471.731 C 622.931 477.38 594.396 515.074 600.045 555.923 C 605.157 592.885 636.77 620.398 674.083 620.361 L 930.083 620.361 C 983.102 620.361 1026.083 577.38 1026.083 524.361 C 1026.083 471.342 983.104 428.36 930.084 428.36 Z " fill="rgb(255,255,210)"/><path d=" M 844.751 471.027 L 844.751 471.027 C 815.291 400.337 734.103 366.913 663.413 396.373 C 615.078 416.516 582.213 462.169 578.447 514.398 C 537.599 520.047 509.064 557.741 514.713 598.59 C 519.825 635.552 551.438 663.065 588.751 663.028 L 844.751 663.028 C 897.77 663.028 940.751 620.047 940.751 567.028 C 940.751 514.009 897.77 471.027 844.751 471.027 Z " fill="rgb(255,255,227)"/></g></g></svg>