<?xml version="1.0" encoding="UTF-8" standalone="no"?><!-- Generator: Gravit.io --><svg xmlns="http://www.w3.org/2000/svg" xmlns:xlink="http://www.w3.org/1999/xlink" style="isolation:isolate" viewBox="463 296 412.913 278.026" width="412.913pt" height="278.026pt"><defs><clipPath id="_clipPath_k2d1y0sSVIv0bdVETkrRhShYGxSdRCPF"><rect x="463" y="296" width="412.913" height="278.026"/></clipPath></defs><g clip-path="url(#_clipPath_k2d1y0sSVIv0bdVETkrRhShYGxSdRCPF)"><clipPath id="_clipPath_x4QzxEgJXnTIU0rq5e4ReYqXr9wcmD8s"><rect x="463" y="296" width="412.913" height="278.026" transform="matrix(1,0,0,1,0,0)" fill="rgb(255,255,255)"/></clipPath><g clip-path="url(#_clipPath_x4QzxEgJXnTIU0rq5e4ReYqXr9wcmD8s)"><g><g><path d=" M 806.454 398.655 C 806.464 398.072 806.476 397.49 806.476 396.905 C 806.476 341.177 761.299 296 705.571 296 C 657.546 296 617.362 329.551 607.168 374.492 C 597.663 369.171 586.714 366.124 575.046 366.124 C 538.639 366.124 509.126 395.638 509.126 432.044 C 509.126 433.532 509.193 435.003 509.29 436.467 C 482.262 446.5 463 472.515 463 503.035 C 463 542.242 494.784 574.026 533.991 574.026 L 787.174 574.026 C 836.183 574.026 875.913 534.296 875.913 485.287 C 875.913 442.899 846.192 407.459 806.454 398.655 Z " fill="rgb(255,255,210)"/></g></g></g></g></svg>