<?xml version="1.0" encoding="UTF-8" standalone="no"?><!-- Generator: Gravit.io --><svg xmlns="http://www.w3.org/2000/svg" xmlns:xlink="http://www.w3.org/1999/xlink" style="isolation:isolate" viewBox="221 306 463.003 288.046" width="463.003pt" height="288.046pt"><defs><clipPath id="_clipPath_qNASnBbkBnHHBvhWwA8un0O5MATZ4m5U"><rect x="221" y="306" width="463.003" height="288.046"/></clipPath></defs><g clip-path="url(#_clipPath_qNASnBbkBnHHBvhWwA8un0O5MATZ4m5U)"><path d=" M 596.161 418.363 C 590.32 418.363 584.491 418.944 578.767 420.102 C 574.45 398.559 560.495 380.182 540.901 370.235 C 521.312 360.288 498.24 359.871 478.299 369.1 C 460.254 319.393 405.329 293.728 355.622 311.774 C 305.915 329.819 280.25 384.748 298.296 434.451 C 254.753 435.828 220.358 471.868 221.009 515.426 C 221.664 558.989 257.128 593.976 300.694 594.046 L 596.161 594.046 C 644.672 594.046 684.003 554.719 684.003 506.205 C 684.003 457.691 644.672 418.363 596.161 418.363 L 596.161 418.363 Z " fill="rgb(255,255,227)"/></g></svg>